<svg preserveAspectRatio="none" overflow="visible" style="display: block;" width="48" height="48" viewBox="0 0 48 48" fill="none" xmlns="http://www.w3.org/2000/svg">
<g id="Group 90">
<circle id="Ellipse 4" cx="24" cy="24" r="24" fill="white"/>
<path id="Vector" d="M25.1336 32.25C16.4213 32.25 11.4538 26.0675 11.25 15.7632H15.6316C15.7717 23.3197 18.9815 26.5166 21.529 27.1771V15.7632H25.6431V22.276C28.1523 21.9986 30.8017 19.0262 31.6933 15.75H35.7947C35.4603 17.4459 34.7923 19.0521 33.8323 20.4682C32.8724 21.8843 31.6413 23.0798 30.2158 23.9802C31.8066 24.8014 33.2115 25.963 34.3378 27.3885C35.4641 28.814 36.2862 30.4709 36.75 32.25H32.2283C31.2602 29.1191 28.8402 26.6883 25.6431 26.3581V32.25H25.1464H25.1336Z" fill="#4385BB"/>
</g>
</svg>
