<svg preserveAspectRatio="none" overflow="visible" style="display: block;" width="51.024" height="94.971" viewBox="0 0 51.024 94.971" fill="none" xmlns="http://www.w3.org/2000/svg">
<g id="Group">
<path id="Vector" d="M41.1741 91.4306C40.4202 90.8759 39.7149 90.4659 38.9853 90.2006C38.2557 89.9353 37.4774 89.8147 36.6749 89.7665C35.0697 89.6941 33.3429 89.9835 31.6648 90.3935C29.9867 90.8035 28.4059 91.2859 27.2142 91.6959C26.0468 92.0818 25.2686 92.3953 25.2686 92.3953C25.2686 92.3953 26.0225 92.8294 27.2385 93.3359C28.4545 93.8424 30.1326 94.4212 31.9567 94.7347C33.7807 95.0483 35.7507 95.0965 37.4774 94.59C39.2042 94.1077 40.6634 93.0706 41.1498 91.4065L41.1741 91.4306Z" fill="#4385BB"/>
<path id="Vector_2" d="M36.0676 84.0986C36.7243 85.5457 37.6485 86.9686 38.8888 87.8851C39.4968 88.3433 40.2021 88.681 40.9317 88.8257C41.6613 88.9704 42.4639 88.9222 43.2178 88.6086C43.2665 86.8722 42.7801 85.5216 42.0261 84.3157C41.2722 83.1339 40.2264 82.0968 39.1077 81.2045C38.0133 80.3121 36.8945 79.5886 36.0433 79.058C35.1921 78.5274 34.6084 78.2139 34.6084 78.2139C34.6084 78.2139 34.6084 78.4068 34.657 78.7203C34.6814 79.0339 34.7543 79.5162 34.8273 80.0709C35.0218 81.1804 35.3623 82.6515 36.019 84.0986H36.0676Z" fill="#4385BB"/>
<path id="Vector_3" d="M24.0768 87.9574C25.7549 87.8851 27.2141 87.2339 28.2599 85.8592C27.433 84.388 26.1683 83.5921 24.6605 83.1339C23.1526 82.6756 21.4015 82.555 19.6748 82.5068C17.948 82.4586 16.2456 82.5068 14.9566 82.5068C13.6433 82.5309 12.8164 82.555 12.8164 82.555C12.8164 82.555 12.9866 82.7238 13.2785 83.0133C13.5703 83.2786 14.0081 83.6886 14.5432 84.1227C15.6376 85.015 17.1698 86.0521 18.8479 86.7998C20.5503 87.5715 22.3987 88.0539 24.0525 87.9574H24.0768Z" fill="#4385BB"/>
<path id="Vector_4" d="M27.2632 81.4217C28.2117 82.6035 29.525 83.3993 31.1788 83.3029C31.8355 81.7111 31.7382 80.1917 31.2761 78.7928C30.814 77.394 30.0114 76.1158 29.2089 75.0064C28.382 73.8969 27.5551 72.9563 26.9471 72.2569C26.6552 71.9193 26.3877 71.654 26.2175 71.461C26.0472 71.2681 25.9499 71.1716 25.9499 71.1716C25.9499 71.1716 25.9013 71.3404 25.804 71.654C25.731 71.9675 25.6338 72.4016 25.5365 72.9322C25.3662 74.0175 25.269 75.4887 25.5365 77.0564C25.7554 78.5999 26.3147 80.1917 27.2632 81.3976V81.4217Z" fill="#4385BB"/>
<path id="Vector_5" d="M6.80973 69.5557C5.61802 69.194 4.86409 68.9769 4.86409 68.9769C4.86409 68.9769 4.93705 69.1699 5.08297 69.5075C5.25322 69.821 5.4721 70.2793 5.78827 70.834C6.10443 71.3646 6.46924 71.9916 6.90701 72.6428C7.12589 72.9805 7.34478 73.294 7.58798 73.6316L7.78255 73.8969L8.02575 74.2105C8.19599 74.4275 8.36624 74.6205 8.53648 74.8375C9.92275 76.4776 11.6252 77.7076 13.3033 78.2381C14.9814 78.7687 16.6109 78.5999 17.9971 77.5628C17.608 75.8987 16.6595 74.7893 15.3949 73.8005C15.0787 73.5593 14.7382 73.3181 14.3977 73.0769C14.0572 72.8358 13.6924 72.6187 13.3033 72.4016C12.9385 72.1605 12.5494 71.9434 12.1602 71.7263C11.7954 71.5334 11.4306 71.3405 11.0415 71.1716C9.53362 70.4722 8.00143 69.9175 6.80973 69.5557Z" fill="#4385BB"/>
<path id="Vector_6" d="M18.4101 72.4979C18.8479 73.9209 19.8937 75.1027 21.4745 75.4644C22.5689 74.1379 22.9337 72.6668 23.0067 71.292C23.0796 69.9173 22.9094 68.615 22.7635 67.5055C22.7148 67.0473 22.5203 66.2514 22.35 65.6485C22.1798 65.0214 21.9852 64.4426 21.7906 63.9602C21.6204 63.4779 21.4502 63.092 21.3286 62.8267C21.2313 62.5614 21.1583 62.3926 21.1583 62.3926C21.1583 62.3926 21.0367 62.5373 20.8665 62.8267C20.6719 63.1161 20.453 63.502 20.1855 64.0085C19.6748 64.9973 19.0424 66.3961 18.6047 67.9156C18.4831 68.3014 18.4101 68.6873 18.3128 69.0973C18.2399 69.4591 18.1912 69.845 18.1426 70.2309C18.1426 70.6167 18.1426 71.0026 18.1669 71.3885C18.2155 71.7744 18.2885 72.1362 18.3858 72.4979H18.4101Z" fill="#4385BB"/>
<path id="Vector_7" d="M5.00976 63.7677C5.27728 64.1053 5.59345 64.3948 5.93394 64.6601C6.2501 64.9254 6.59059 65.1906 6.93108 65.4077C8.31734 66.276 9.82521 66.6618 11.5033 66.1795C11.6492 65.3595 11.5763 64.6118 11.3574 63.9124C11.2601 63.5748 11.0899 63.2371 10.9196 62.8995C10.7494 62.5859 10.5062 62.2724 10.3116 61.9589C9.41176 60.7289 8.0255 59.6677 6.63923 58.703C5.27728 57.7382 3.8667 56.9182 2.77228 56.3153C1.65354 55.7124 0.948242 55.3506 0.948242 55.3506C0.948242 55.3506 0.972563 55.5676 1.06984 55.9294C1.16713 56.2912 1.31305 56.7735 1.53193 57.3765C1.94538 58.5824 2.52907 60.1741 3.47757 61.6453C3.93966 62.393 4.45039 63.1165 5.00976 63.7677Z" fill="#4385BB"/>
<path id="Vector_8" d="M14.0086 63.1163C14.3248 63.7675 14.8112 64.3463 15.4678 64.8045C16.9757 63.9363 17.8512 62.658 18.289 61.2592C18.4106 60.9216 18.4835 60.5598 18.5565 60.198C18.5808 60.0292 18.6295 59.8363 18.6538 59.6674C18.6538 59.4745 18.7024 59.3057 18.7268 59.1127C18.824 58.3651 18.8484 57.6415 18.824 56.918C18.7268 55.4951 18.6538 54.1686 18.4592 53.2039C18.3863 52.7215 18.289 52.3115 18.216 52.0462C18.1674 51.7568 18.1431 51.6121 18.1431 51.6121C18.1431 51.6121 17.9971 51.7327 17.7783 51.9739C17.5351 52.215 17.2432 52.5527 16.8784 52.9627C16.1731 53.8309 15.2976 55.0609 14.568 56.4839C13.887 57.8827 13.4492 59.4986 13.4735 60.9939C13.4735 61.3798 13.5222 61.7416 13.6195 62.0792C13.7167 62.441 13.8383 62.7786 13.9843 63.0922L14.0086 63.1163Z" fill="#4385BB"/>
<path id="Vector_9" d="M2.11588 50.165C2.33476 50.5509 2.55365 50.9127 2.79685 51.2503C3.06438 51.588 3.35622 51.9015 3.64807 52.1909C4.83977 53.3245 6.27468 53.9998 8.00143 53.8309C8.29327 53.0592 8.39056 52.2874 8.29328 51.588C8.24463 51.2262 8.17167 50.8644 8.05007 50.5268C7.92847 50.165 7.83119 49.8274 7.66094 49.4897C7.34478 48.7903 6.90701 48.115 6.39628 47.4638C6.12875 47.1262 5.86123 46.8127 5.61802 46.475C5.3505 46.1615 5.08298 45.8479 4.79113 45.5344C3.67239 44.3044 2.40773 43.1709 1.53219 42.3267C0.632332 41.4585 0 40.9279 0 40.9279C0 40.9279 0 41.772 0.0486409 43.0744C0.0972818 43.7256 0.218884 44.4732 0.364807 45.2691C0.437768 45.6791 0.53505 46.0891 0.632332 46.4991C0.729614 46.9091 0.826895 47.3432 0.997139 47.7532C1.3133 48.5974 1.65379 49.4174 2.09156 50.1891L2.11588 50.165Z" fill="#4385BB"/>
<path id="Vector_10" d="M12.0873 52.8903C13.7411 52.3356 14.8355 51.2503 15.5651 49.9962C15.7597 49.6827 15.9056 49.3691 16.0515 49.0315C16.2217 48.6938 16.3433 48.3562 16.465 48.0185C16.7082 47.3432 16.8784 46.6438 17 45.9685C17.1216 45.2932 17.2675 44.642 17.3405 44.0391C17.3891 43.7256 17.4134 43.4361 17.4134 43.1709C17.4134 42.9056 17.4378 42.6403 17.4864 42.3991C17.5837 41.4585 17.5837 40.8555 17.5837 40.8555C17.5837 40.8555 16.9514 41.1932 16.0272 41.8444C15.8083 42.0132 15.5651 42.182 15.2976 42.3991C15.03 42.592 14.7868 42.8332 14.5193 43.0503C14.0086 43.5326 13.4979 44.0632 12.9871 44.6662C12.7439 44.9797 12.5007 45.2932 12.2818 45.6067C12.1846 45.7756 12.0629 45.9444 11.9657 46.1132C11.8684 46.2821 11.7711 46.4509 11.6981 46.6197C11.3577 47.3191 11.0901 48.0426 10.9442 48.7662C10.8712 49.1279 10.8226 49.4897 10.8469 49.8515C10.8469 50.2132 10.9199 50.575 11.0172 50.9127C11.2117 51.6121 11.5765 52.2633 12.1359 52.818L12.0873 52.8903Z" fill="#4385BB"/>
<path id="Vector_11" d="M6.10443 32.2455C5.71531 31.522 5.30186 30.7984 4.88841 30.1231C4.47496 29.4478 4.08584 28.8449 3.76967 28.3384C3.11302 27.3013 2.65093 26.626 2.65093 26.626C2.65093 26.626 2.40773 27.446 2.1402 28.7002C2.04292 29.3514 1.94564 30.099 1.897 30.8949C1.87268 31.3049 1.84835 31.7149 1.82403 32.149C1.82403 32.5831 1.84835 33.0173 1.897 33.4755C1.96996 34.3679 2.09156 35.2602 2.31044 36.1043C2.55365 36.9485 2.89413 37.7443 3.30758 38.4438C4.13448 39.8426 5.44778 40.8073 7.15021 41.0485C7.3691 40.7108 7.53934 40.3491 7.66094 40.0114C7.78255 39.6497 7.90415 39.312 7.95279 38.9502C8.07439 38.2267 8.02575 37.5032 7.83119 36.7555C7.68526 36.0079 7.46638 35.2602 7.12589 34.4884C6.80973 33.7408 6.39628 32.969 6.03147 32.2214L6.10443 32.2455Z" fill="#4385BB"/>
<path id="Vector_12" d="M15.4194 38.7812C15.9302 38.2747 16.3679 37.72 16.7327 37.1171C17.1462 36.5383 17.4867 35.9353 17.7785 35.3324C17.9244 35.043 18.046 34.7294 18.192 34.44C18.3379 34.1506 18.4595 33.8612 18.5811 33.5959C18.8243 33.0412 18.9702 32.5347 19.1405 32.1006C19.4809 31.2323 19.6269 30.6294 19.6269 30.6294C19.6269 30.6294 18.9216 30.7982 17.8758 31.1841C16.8057 31.57 15.5167 32.2212 14.2277 33.1135C13.9116 33.3306 13.5711 33.5718 13.3036 33.8371C13.0117 34.1024 12.7442 34.3677 12.4767 34.6571C11.9659 35.2359 11.5038 35.863 11.1877 36.5383C10.8958 37.2136 10.7256 37.913 10.7256 38.6365C10.7256 38.9983 10.7499 39.3359 10.8715 39.6977C10.9931 40.0595 11.139 40.3971 11.3579 40.7348C13.0847 40.5659 14.3493 39.77 15.3951 38.7812H15.4194Z" fill="#4385BB"/>
<path id="Vector_13" d="M10.3608 27.7354C10.5796 27.446 10.7742 27.1324 10.9201 26.7948C11.0661 26.4571 11.1633 26.1195 11.2363 25.7577C11.3093 25.3959 11.3336 25.0342 11.3822 24.6483C11.4309 23.9006 11.3822 23.1048 11.2606 22.2848C11.139 21.4647 10.9931 20.6689 10.7742 19.8489C10.3608 18.233 9.89867 16.6894 9.48522 15.5318C9.07178 14.3741 8.80425 13.6265 8.80425 13.6265C8.80425 13.6265 8.68265 13.7953 8.51241 14.1329C8.34216 14.4706 8.09896 14.9288 7.85575 15.5077C7.29638 16.6412 6.76133 18.2812 6.39653 19.9936C6.2506 20.8618 6.15332 21.7542 6.15332 22.6224C6.15332 23.0565 6.17764 23.4906 6.2506 23.9006C6.32356 24.3348 6.39653 24.7206 6.51813 25.1065C6.76133 25.8783 7.0775 26.5777 7.61255 27.1807C8.12328 27.7836 8.77993 28.266 9.55819 28.6036C9.87435 28.3383 10.1176 28.0489 10.3364 27.7354H10.3608Z" fill="#4385BB"/>
<path id="Vector_14" d="M24.0043 21.5613C24.1502 21.3201 24.2232 21.1996 24.2232 21.1996C24.2232 21.1996 24.0286 21.1996 23.7125 21.1996C23.372 21.1996 22.9342 21.2478 22.3748 21.3201C21.8155 21.3925 21.1831 21.489 20.4778 21.6578C20.1373 21.7301 19.7725 21.8266 19.4077 21.9231C19.0672 22.0437 18.7024 22.1643 18.3376 22.309C17.6323 22.5984 16.8784 22.936 16.2461 23.3702C15.6137 23.8043 15.03 24.3108 14.5436 24.8655C14.3004 25.1308 14.1059 25.4443 13.9356 25.7578C13.7897 26.0713 13.6438 26.409 13.5708 26.7466C13.4735 27.0843 13.4492 27.4461 13.4492 27.8078C13.4492 28.1696 13.5465 28.5555 13.6681 28.9172C14.5193 29.062 15.3219 29.0137 16.0272 28.869C16.7325 28.7002 17.4378 28.4349 18.0701 28.0972C18.3863 27.9284 18.6781 27.7114 18.97 27.5184C19.1159 27.4219 19.2375 27.3014 19.3834 27.1808C19.5293 27.0602 19.6753 26.9637 19.7969 26.8431C20.3319 26.3849 20.8183 25.8784 21.2561 25.3719C21.7182 24.8655 22.1316 24.359 22.4721 23.8766C22.5694 23.756 22.6424 23.6355 22.7153 23.5149C22.8126 23.3943 22.8856 23.2737 22.9585 23.1772C23.1288 22.9602 23.2747 22.7431 23.3963 22.5502C23.6638 22.1643 23.8584 21.8266 24.0043 21.5854V21.5613Z" fill="#4385BB"/>
<path id="Vector_15" d="M15.0544 17.2442C15.784 16.8825 16.3433 16.376 16.7568 15.7972C17.1946 15.2424 17.5107 14.5671 17.7296 13.8436C18.1674 12.4207 18.2403 10.7324 18.2403 9.09241C18.2403 8.68241 18.2403 8.2724 18.1917 7.8624C18.1917 7.47652 18.1431 7.06651 18.1187 6.70475C18.0701 5.9571 17.9971 5.23356 17.9242 4.63062C17.8026 3.44884 17.6567 2.65296 17.6567 2.65296C17.6567 2.65296 17.5107 2.79766 17.2675 3.06296C17.0243 3.32826 16.6838 3.71414 16.319 4.22061C15.9542 4.72709 15.5165 5.30591 15.103 5.98121C14.7139 6.65651 14.3004 7.40416 13.9599 8.20005C13.6195 8.99594 13.3276 9.81594 13.133 10.6601C12.9385 11.5042 12.8655 12.3483 12.9142 13.1442C13.0114 14.7601 13.6681 16.2072 15.03 17.2442H15.0544Z" fill="#4385BB"/>
<path id="Vector_16" d="M27.1416 16.376C27.701 15.966 28.2361 15.5801 28.6738 15.1701C29.1359 14.7601 29.5737 14.3983 29.8898 14.0607C30.2303 13.723 30.5222 13.4577 30.7167 13.2407C30.9113 13.0477 31.0086 12.9271 31.0086 12.9271C31.0086 12.9271 30.3033 12.7583 29.1602 12.6618C28.6009 12.6136 27.9685 12.5895 27.2389 12.5895C26.5093 12.5895 25.7554 12.6377 25.0014 12.7583C23.4692 12.9754 21.9127 13.506 20.721 14.3742C20.1373 14.8324 19.6509 15.363 19.3104 15.966C18.9943 16.593 18.824 17.3166 18.8727 18.0883C20.4778 18.7878 21.9857 18.7154 23.3476 18.3295C24.0529 18.1366 24.7096 17.8472 25.3419 17.5095C25.9743 17.1719 26.5823 16.786 27.1173 16.376H27.1416Z" fill="#4385BB"/>
<path id="Vector_17" d="M48.9811 94.783C45.6492 92.4918 42.1957 90.6829 39.6177 89.6459C34.1699 87.4753 28.6248 84.9188 24.0769 81.1805C19.1399 77.1287 15.7107 71.7987 13.303 65.9622C10.2872 58.7027 8.12269 51.1056 8.43886 43.195C8.70639 36.2973 10.4818 29.5443 13.4002 23.3219C15.7836 18.2572 18.8723 13.2166 22.5691 8.85123C22.4231 8.20005 22.3988 7.54887 22.5204 6.94593C22.642 6.22239 22.9339 5.52298 23.3716 4.89591C24.2228 3.59355 25.5848 2.55649 26.9954 1.78472C28.406 1.03707 29.8652 0.554709 30.9596 0.289414C31.519 0.144707 31.9811 0.0723534 32.2972 0.0241178C32.4432 0 32.5648 0 32.662 0H32.7593C32.7593 0 32.7593 0.0241178 32.735 0.0964712C32.6864 0.168825 32.6377 0.265296 32.5648 0.410003C32.4188 0.699416 32.2 1.10942 31.9568 1.56766C31.4217 2.53237 30.7164 3.78649 29.8895 5.0165C29.4517 5.64357 28.9897 6.24651 28.5032 6.80122C28.26 7.06652 27.9925 7.33181 27.725 7.57299C27.4575 7.83829 27.1899 8.05535 26.8981 8.24829C26.2901 8.65829 25.6821 8.97182 24.9768 9.16476C24.4661 9.28535 23.931 9.33359 23.3473 9.30947C21.7665 11.2148 20.3072 13.2407 18.9453 15.2666C13.6921 23.1772 9.89809 32.2937 9.33872 41.8203C8.87663 49.9962 10.8223 57.7863 13.9353 65.311C15.5648 69.2904 17.6077 73.1734 20.4532 76.4534C23.2743 79.7093 26.7035 82.3141 30.4732 84.4364C35.6291 87.3064 44.0197 90.8518 51.024 93.2877L48.9811 94.783Z" fill="#4385BB"/>
</g>
</svg>
